<svg xmlns="http://www.w3.org/2000/svg" width="16" height="16"><path d="M4.81 8.67a.469.469 0 00.15.35l3.03 2.96 3.03-2.96a.483.483 0 000-.7.5.5 0 00-.71 0l-2.32 2.32-2.33-2.32a.483.483 0 00-.7 0 .469.469 0 00-.15.35zM7.5.49v10.43a.51.51 0 00.5.51.5.5 0 00.5-.51V.49a.5.5 0 00-.5-.5.508.508 0 00-.5.5zM1 5h4.51l.01 1.01H1.6a.6.6 0 00-.6.6v7.78a.6.6 0 00.6.6l12.79-.01a.6.6 0 00.6-.61V6.61a.6.6 0 00-.6-.6H10.5V5H15a1 1 0 011 1v9a1 1 0 01-1 1H1a1 1 0 01-1-1V6a1 1 0 011-1z" fill="#666" fill-rule="evenodd"/></svg>